<svg width="50" height="50" viewBox="0 0 50 50" fill="none" xmlns="http://www.w3.org/2000/svg">
<circle cx="25" cy="25" r="25" fill="#F7F7F7"/>
<path d="M36.0352 18.7123H35.9479C34.7248 13.0065 30.1296 10 24.3812 10C17.6543 10.0162 12.5 14.1379 12.5 21.8966V22.7047C12.5 29.8006 22.4418 38.5938 24.1366 40H24.6258C26.076 38.7877 33.5716 32.1282 35.7033 25.8244C35.8605 25.3556 36.3323 25.0323 36.8739 25.0323L42.5 25.0162C42.1331 20.8621 39.8093 18.8901 36.0352 18.7123ZM29.2909 21.2177C29.2909 24.4181 27.1942 26.1153 24.3812 26.1153C21.5681 26.1153 19.4715 24.4181 19.4715 21.2177V20.8782C19.4715 17.6778 21.6031 15.9806 24.3812 15.9806C27.1593 15.9806 29.2909 17.6778 29.2909 20.8782V21.2177Z" fill="#327766"/>
</svg>
