<svg width="142" height="37" viewBox="0 0 142 37" fill="#FFFFFF" xmlns="http://www.w3.org/2000/svg">
<path d="M56.3925 8.29225C52.7586 8.29225 51.0394 9.73797 50.1016 11.2814H49.3787V8.85882H44.3773V36.9138H49.4569V26.5592H50.1797C51.0198 27.9659 52.7586 29.4311 56.3925 29.4311C61.2376 29.4311 65.4185 25.7191 65.4185 19.1938V18.5491C65.4185 12.0043 61.179 8.29225 56.3925 8.29225ZM60.3389 19.0571C60.3389 22.9254 57.9945 24.9767 54.8491 24.9767C51.7036 24.9767 49.3592 22.9254 49.3592 19.0571V18.6468C49.3592 14.7785 51.7427 12.7271 54.8491 12.7271C57.9554 12.7271 60.3389 14.7785 60.3389 18.6468V19.0571Z"/>
<path d="M76.4569 8.29225C70.4981 8.29225 66.454 12.3168 66.454 18.6077V19.0961C66.454 25.387 70.5176 29.4116 76.535 29.4116C82.0249 29.4116 84.3888 26.3052 85.522 24.1757L81.3606 22.0071C80.6768 23.531 79.5046 24.9963 76.6913 24.9963C73.878 24.9963 71.7289 23.1012 71.6117 20.366H86.1667V18.6273C86.1667 12.4927 82.3375 8.29225 76.4569 8.29225ZM71.6508 16.5563C72.022 14.251 73.6631 12.7271 76.3982 12.7271C79.0162 12.7271 80.755 14.251 80.9894 16.5563H71.6508Z"/>
<path d="M93.6884 11.1251H92.9655V8.85882H87.9641V28.845H93.0437V17.4941C93.0437 14.6808 94.8997 13.2937 97.4785 13.2937H99.9793V8.78067H97.5567C95.7007 8.78067 94.255 9.50353 93.6884 11.1251Z"/>
<path d="M110.529 24.8986C107.462 24.8986 105.137 22.8472 105.137 19.0571V18.6468C105.137 14.8566 107.481 12.8053 110.529 12.8053C113.577 12.8053 115.081 14.6613 115.413 17.0838L120.337 16.0289C119.497 11.594 116.136 8.29225 110.412 8.29225C104.61 8.29225 100.057 12.0433 100.057 18.5686V19.1352C100.057 25.6605 104.61 29.4116 110.412 29.4116C116.136 29.4116 119.399 26.0708 120.454 21.7532L115.531 20.5809C115.101 23.1793 113.596 24.8986 110.529 24.8986Z"/>
<path d="M133.524 8.54623C129.968 8.54623 128.405 10.031 127.761 11.3205H127.038V0.633789H121.958V28.845H127.038V18.6859C127.038 14.9739 128.855 12.8053 131.961 12.8053C134.696 12.8053 136.24 14.2901 136.24 17.3183V28.845H141.319V16.9275C141.3 11.9652 138.193 8.54623 133.524 8.54623Z"/>
<path d="M27.1653 11.1837H27.0676C25.7 4.28719 20.5618 0.653326 14.1342 0.653326C6.6125 0.672863 0.849121 5.65477 0.849121 15.0325V16.0093C0.849121 24.586 11.9656 35.2141 13.8607 36.9138H14.4077C16.0293 35.4485 24.4106 27.3993 26.7941 19.7799C26.9699 19.2134 27.4974 18.8226 28.1031 18.8226L34.3939 18.8031C33.9837 13.7821 31.3853 11.3986 27.1653 11.1837ZM19.6241 14.2119C19.6241 18.0802 17.2796 20.1316 14.1342 20.1316C10.9888 20.1316 8.64434 18.0802 8.64434 14.2119V13.8016C8.64434 9.93334 11.0278 7.88197 14.1342 7.88197C17.2406 7.88197 19.6241 9.93334 19.6241 13.8016V14.2119Z"/>
</svg>
